<svg id="SvgjsSvg1001" width="288" height="288" xmlns="http://www.w3.org/2000/svg" version="1.1" xmlns:xlink="http://www.w3.org/1999/xlink" xmlns:svgjs="http://svgjs.com/svgjs"><defs id="SvgjsDefs1002"></defs><g id="SvgjsG1008" transform="matrix(0.9167,0,0,0.9167,11.985024552154556,11.973874839019771)"><svg xmlns="http://www.w3.org/2000/svg" width="288" height="288" version="1.0" viewBox="0 0 225 225"><path d="M1046 1874 c-284 -324 -467 -652 -507 -907 -62 -395 182 -677 586-677 275 0 480 129 565 355 27 74 37 221 21 322 -40 259 -246 621 -529 932
l-58 65 -78 -90z m234 -758 c0 -3 -58 -117 -129 -253 -114 -219 -132 -248
-155 -251 -14 -2 -26 0 -26 3 0 4 57 119 128 256 119 233 129 249 155 249 15
0 27 -2 27 -4z m-249 -35 c24 -25 29 -37 29 -81 0 -82 -28 -119 -92 -120 -51
0 -88 44 -88 106 0 109 84 162 151 95z m305 -244 c23 -20 28 -34 32 -85 4 -58
3 -63 -26 -92 -22 -22 -40 -30 -64 -30 -58 1 -88 40 -88 115 0 75 30 114 87
115 19 0 43 -9 59 -23z" transform="matrix(.1 0 0 -.1 0 225)" fill="#66b8ff" class="color000 svgShape"></path></svg></g></svg>