<svg id="SvgjsSvg1021" width="288" height="288" xmlns="http://www.w3.org/2000/svg" version="1.1" xmlns:xlink="http://www.w3.org/1999/xlink" xmlns:svgjs="http://svgjs.com/svgjs"><defs id="SvgjsDefs1022"></defs><g id="SvgjsG1023"><svg xmlns="http://www.w3.org/2000/svg" width="288" height="288" version="1.0" viewBox="0 0 980 552"><g transform="matrix(.1 0 0 -.1 0 552)" fill="#66b8ff" class="color000 svgShape"><path d="M5875 5510 c-153 -24 -343 -97 -461 -177 -71 -49 -139 -104 -143-118 -2 -5 -20 -29 -42 -52 -148 -160 -30 -425 191 -427 83 -1 140 25 200 88
99 104 254 168 410 169 175 1 313 -56 436 -178 110 -110 183 -279 184 -427 0
-79 -28 -196 -66 -276 -51 -107 -169 -225 -274 -275 -154 -73 127 -67 -3142
-67 -3319 0 -3001 8 -3089 -80 -147 -147 -71 -397 134 -440 38 -7 894 -10
3007 -7 l2955 3 90 21 c388 91 686 339 825 687 65 163 74 212 74 426 0 181 -2
202 -27 295 -112 412 -447 729 -870 821 -86 19 -308 27 -392 14z" fill="#66b8ff" class="color000 svgShape"></path><path d="M918 5250c-45-13-87-49-109-92-18-36-20-55-17-177 3-134 4-139 32-175 16-21 47-47 70-57 39-18 99-19 1601-19 1497 0 1562 1 1601 19 85 39 107 96 102 267-3 111-5 124-30 161-14 22-43 48-65 59-37 18-85 19-1598 21-858 1-1572-2-1587-7zM8435 4620c-228-49-435-162-557-304-74-86-88-117-88-199 0-149 109-256 261-257 79 0 155 34 195 86 38 49 126 104 224 138 74 26 99 30 190 30 215 0 391-93 508-269 78-115 97-184 97-340 0-156-19-225-97-340-56-85-125-148-218-198-137-75-91-71-925-77-837-6-782-1-858-77-56-55-72-97-72-183 0-86 16-128 72-183 76-77 15-72 893-72l785 0 100 28c200 55 414 182 546 325 320 348 398 841 200 1258-69 144-120 215-236 329-152 150-311 240-522 296-116 31-374 36-498 9zM3069 2265c-64-20-131-83-159-147-44-102-11-238 73-302 85-65 5-60 1167-66l1055-5 75-27c363-133 517-557 323-887-61-103-149-184-256-235-51-24-116-49-145-55-129-27-296-2-413 60-32 18-88 60-123 94-47 46-79 68-117 80-140 47-293-31-334-169-30-101-11-172 75-272 189-223 569-361 894-325 276 31 508 141 696 330 141 142 245 323 297 518 25 89 27 114 27 283 0 170-2 193-27 285-99 368-381 672-731 790-183 61-114 58-1271 61-900 3-1067 1-1106-11z" fill="#66b8ff" class="color000 svgShape"></path></g></svg></g></svg>